<svg width="111" height="50" viewBox="0 0 111 50" fill="none" xmlns="http://www.w3.org/2000/svg">
<g filter="url(#filter0_dd_15_35)">
<rect x="4" y="1" width="103" height="41" rx="10" fill="#0D606F"/>
<path d="M35.344 27V15.8H37.264V25.336H43.232V27H35.344ZM48.4715 27.144C47.7142 27.144 47.0262 26.9627 46.4075 26.6C45.7995 26.2373 45.3195 25.7467 44.9675 25.128C44.6155 24.4987 44.4395 23.7893 44.4395 23C44.4395 22.2107 44.6155 21.5067 44.9675 20.888C45.3195 20.2587 45.7995 19.7627 46.4075 19.4C47.0155 19.0373 47.7035 18.856 48.4715 18.856C49.2395 18.856 49.9222 19.0373 50.5195 19.4C51.1275 19.7627 51.6075 20.2587 51.9595 20.888C52.3115 21.5067 52.4875 22.2107 52.4875 23C52.4875 23.7893 52.3115 24.4987 51.9595 25.128C51.6075 25.7467 51.1275 26.2373 50.5195 26.6C49.9222 26.9627 49.2395 27.144 48.4715 27.144ZM48.4715 25.608C48.9088 25.608 49.2928 25.496 49.6235 25.272C49.9648 25.048 50.2315 24.7387 50.4235 24.344C50.6155 23.9387 50.7115 23.4907 50.7115 23C50.7115 22.4987 50.6155 22.056 50.4235 21.672C50.2315 21.2773 49.9648 20.968 49.6235 20.744C49.2928 20.5093 48.9088 20.392 48.4715 20.392C48.0342 20.392 47.6448 20.5093 47.3035 20.744C46.9622 20.968 46.6955 21.2773 46.5035 21.672C46.3115 22.056 46.2155 22.4987 46.2155 23C46.2155 23.5013 46.3115 23.9493 46.5035 24.344C46.6955 24.7387 46.9622 25.048 47.3035 25.272C47.6448 25.496 48.0342 25.608 48.4715 25.608ZM58.0984 30.504C57.533 30.504 56.973 30.4347 56.4184 30.296C55.8637 30.1573 55.3517 29.9653 54.8824 29.72L55.5064 28.392C55.9864 28.616 56.4237 28.7813 56.8184 28.888C57.2237 29.0053 57.6237 29.064 58.0184 29.064C58.6904 29.064 59.197 28.9147 59.5384 28.616C59.8904 28.3173 60.0664 27.8747 60.0664 27.288V25.928C59.7784 26.28 59.421 26.5573 58.9944 26.76C58.5677 26.952 58.1037 27.048 57.6024 27.048C56.9304 27.048 56.3224 26.8667 55.7784 26.504C55.2344 26.1307 54.797 25.64 54.4664 25.032C54.1464 24.4133 53.9864 23.7253 53.9864 22.968C53.9864 22.2107 54.1517 21.528 54.4824 20.92C54.813 20.312 55.261 19.8267 55.8264 19.464C56.4024 19.1013 57.037 18.92 57.7304 18.92C58.1997 18.92 58.637 19.0107 59.0424 19.192C59.4477 19.3733 59.7944 19.64 60.0824 19.992V18.984H61.8744V27.288C61.8744 28.3227 61.549 29.1173 60.8984 29.672C60.2477 30.2267 59.3144 30.504 58.0984 30.504ZM58.1624 25.544C58.5464 25.544 58.9037 25.4693 59.2344 25.32C59.565 25.16 59.8424 24.9413 60.0664 24.664V21.304C59.8317 21.0267 59.549 20.8133 59.2184 20.664C58.8877 20.5147 58.5357 20.44 58.1624 20.44C57.7037 20.44 57.293 20.552 56.9304 20.776C56.5784 20.9893 56.2957 21.288 56.0824 21.672C55.869 22.0453 55.7624 22.4827 55.7624 22.984C55.7624 23.464 55.869 23.9013 56.0824 24.296C56.2957 24.68 56.5784 24.984 56.9304 25.208C57.293 25.432 57.7037 25.544 58.1624 25.544ZM64.0884 27V18.984H65.8964V27H64.0884ZM65.0004 17.352C64.691 17.352 64.4244 17.2453 64.2004 17.032C63.987 16.808 63.8804 16.5467 63.8804 16.248C63.8804 15.9387 63.987 15.6773 64.2004 15.464C64.4244 15.24 64.691 15.128 65.0004 15.128C65.3097 15.128 65.571 15.24 65.7844 15.464C66.0084 15.6773 66.1204 15.9333 66.1204 16.232C66.1204 16.5413 66.0084 16.808 65.7844 17.032C65.571 17.2453 65.3097 17.352 65.0004 17.352ZM68.1356 27V18.984H69.9436V20.296C70.253 19.816 70.621 19.4587 71.0476 19.224C71.4743 18.9787 71.949 18.856 72.4716 18.856C73.0263 18.856 73.5116 18.9787 73.9276 19.224C74.3436 19.4587 74.669 19.7893 74.9036 20.216C75.149 20.6427 75.2716 21.144 75.2716 21.72V27H73.4476V22.232C73.4476 21.6453 73.2876 21.1813 72.9676 20.84C72.6476 20.488 72.221 20.312 71.6876 20.312C71.325 20.312 70.9943 20.3973 70.6956 20.568C70.4076 20.728 70.157 20.968 69.9436 21.288V27H68.1356Z" fill="white"/>
</g>
<defs>
<filter id="filter0_dd_15_35" x="0" y="0" width="111" height="50" filterUnits="userSpaceOnUse" color-interpolation-filters="sRGB">
<feFlood flood-opacity="0" result="BackgroundImageFix"/>
<feColorMatrix in="SourceAlpha" type="matrix" values="0 0 0 0 0 0 0 0 0 0 0 0 0 0 0 0 0 0 127 0" result="hardAlpha"/>
<feOffset dy="2"/>
<feGaussianBlur stdDeviation="1.5"/>
<feComposite in2="hardAlpha" operator="out"/>
<feColorMatrix type="matrix" values="0 0 0 0 0.0509804 0 0 0 0 0.376471 0 0 0 0 0.435294 0 0 0 0.16 0"/>
<feBlend mode="normal" in2="BackgroundImageFix" result="effect1_dropShadow_15_35"/>
<feColorMatrix in="SourceAlpha" type="matrix" values="0 0 0 0 0 0 0 0 0 0 0 0 0 0 0 0 0 0 127 0" result="hardAlpha"/>
<feOffset dy="4"/>
<feGaussianBlur stdDeviation="2"/>
<feComposite in2="hardAlpha" operator="out"/>
<feColorMatrix type="matrix" values="0 0 0 0 0 0 0 0 0 0 0 0 0 0 0 0 0 0 0.25 0"/>
<feBlend mode="normal" in2="effect1_dropShadow_15_35" result="effect2_dropShadow_15_35"/>
<feBlend mode="normal" in="SourceGraphic" in2="effect2_dropShadow_15_35" result="shape"/>
</filter>
</defs>
</svg>
